General
Unique ID                                : 28708206085869353711704158739363544256 (0x1598FFD70AEFF8117A4E8E36739C3CC0)
Complete name                            : Gladiator.2000.REPACK.Extended.Cut.1080p.UHD.BluRay.DD+7.1.HDR.x265-DON.mkv
Format                                   : Matroska
Format version                           : Version 4
File size                                : 16.6 GiB
Duration                                 : 2 h 50 min
Overall bit rate                         : 13.9 Mb/s
Encoded date                             : UTC 2019-02-17 20:16:25
Writing application                      : mkvmerge v31.0.0 ('Dolores In A Shoestand') 64-bit
Writing library                          : libebml v1.3.6 + libmatroska v1.4.9

Video
ID                                       : 1
Format                                   : HEVC
Format/Info                              : High Efficiency Video Coding
Format profile                           : Main 10@L5.1@High
HDR format                               : SMPTE ST 2086, HDR10 compatible
Codec ID                                 : V_MPEGH/ISO/HEVC
Duration                                 : 2 h 50 min
Bit rate                                 : 12.1 Mb/s
Width                                    : 1 920 pixels
Height                                   : 800 pixels
Display aspect ratio                     : 2.40:1
Frame rate mode                          : Constant
Frame rate                               : 23.976 (24000/1001) FPS
Color space                              : YUV
Chroma subsampling                       : 4:2:0
Bit depth                                : 10 bits
Bits/(Pixel*Frame)                       : 0.328
Stream size                              : 14.4 GiB (87%)
Title                                    : Gladiator.2000.REPACK.Extended.Cut.1080p.UHD.BluRay.DD+7.1.HDR.x265-DON
Writing library                          : x265 3.0_RC+13-ae085e5cd8a2:[Windows][GCC 8.2.1][64 bit] 10bit
Encoding settings                        : cpuid=1049583 / frame-threads=3 / numa-pools=8 / wpp / no-pmode / no-pme / no-psnr / no-ssim / log-level=2 / input-csp=1 / input-res=1920x800 / interlace=0 / total-frames=245910 / level-idc=51 / high-tier=1 / uhd-bd=0 / ref=5 / no-allow-non-conformance / repeat-headers / annexb / aud / hrd / info / hash=0 / no-temporal-layers / no-open-gop / min-keyint=23 / keyint=250 / gop-lookahead=0 / bframes=12 / b-adapt=2 / b-pyramid / bframe-bias=0 / rc-lookahead=60 / lookahead-slices=5 / scenecut=40 / radl=0 / no-splice / no-intra-refresh / ctu=64 / min-cu-size=8 / no-rect / no-amp / max-tu-size=32 / tu-inter-depth=4 / tu-intra-depth=4 / limit-tu=0 / rdoq-level=0 / dynamic-rd=0.00 / no-ssim-rd / signhide / no-tskip / nr-intra=0 / nr-inter=0 / no-constrained-intra / strong-intra-smoothing / max-merge=2 / limit-refs=3 / no-limit-modes / me=3 / subme=5 / merange=32 / temporal-mvp / weightp / no-weightb / no-analyze-src-pics / deblock=-3:-3 / no-sao / no-sao-non-deblock / rd=3 / no-early-skip / no-rskip / no-fast-intra / no-tskip-fast / no-cu-lossless / no-b-intra / no-splitrd-skip / rdpenalty=0 / psy-rd=1.40 / psy-rdoq=0.00 / no-rd-refine / no-lossless / cbqpoffs=0 / crqpoffs=0 / rc=crf / crf=14.5 / qcomp=0.60 / qpstep=4 / stats-write=0 / stats-read=0 / vbv-maxrate=160000 / vbv-bufsize=160000 / vbv-init=0.9 / crf-max=0.0 / crf-min=0.0 / ipratio=1.30 / pbratio=1.20 / aq-mode=3 / aq-strength=0.70 / no-cutree / zone-count=0 / no-strict-cbr / qg-size=8 / no-rc-grain / qpmax=69 / qpmin=0 / no-const-vbv / sar=1 / overscan=0 / videoformat=5 / range=0 / colorprim=9 / transfer=16 / colormatrix=9 / chromaloc=0 / display-window=0 / master-display=G(13250,34500)B(7500,3000)R(34000,16000)WP(15635,16450)L(10000000,50) / max-cll=1000,497 / min-luma=0 / max-luma=1023 / log2-max-poc-lsb=8 / vui-timing-info / vui-hrd-info / slices=1 / no-opt-qp-pps / no-opt-ref-list-length-pps / no-multi-pass-opt-rps / scenecut-bias=0.05 / no-opt-cu-delta-qp / no-aq-motion / hdr / hdr-opt / no-dhdr10-opt / no-idr-recovery-sei / analysis-reuse-level=5 / scale-factor=0 / refine-intra=0 / refine-inter=0 / refine-mv=0 / refine-ctu-distortion=0 / no-limit-sao / ctu-info=0 / no-lowpass-dct / refine-analysis-type=0 / copy-pic=1 / max-ausize-factor=1.0 / no-dynamic-refine / no-single-sei / no-hevc-aq / qp-adaptation-range=1.00
Language                                 : English
Default                                  : Yes
Forced                                   : No
Color range                              : Limited
Color primaries                          : BT.2020
Transfer characteristics                 : PQ
Matrix coefficients                      : BT.2020 non-constant
Mastering display color primaries        : Display P3
Mastering display luminance              : min: 0.0050 cd/m2, max: 1000 cd/m2
Maximum Content Light Level              : 1000 cd/m2
Maximum Frame-Average Light Level        : 497 cd/m2

Audio #1
ID                                       : 2
Format                                   : E-AC-3
Format/Info                              : Enhanced AC-3
Commercial name                          : Dolby Digital Plus
Format profile                           : Blu-ray Disc
Codec ID                                 : A_EAC3
Duration                                 : 2 h 50 min
Bit rate mode                            : Constant
Bit rate                                 : 1 536 kb/s
Channel(s)                               : 8 channels
Channel layout                           : L R C LFE Ls Rs Lb Rb
Sampling rate                            : 48.0 kHz
Frame rate                               : 31.250 FPS (1536 SPF)
Compression mode                         : Lossy
Stream size                              : 1.83 GiB (11%)
Language                                 : English
Service kind                             : Complete Main
Default                                  : Yes
Forced                                   : No

Audio #2
ID                                       : 3
Format                                   : AAC LC
Format/Info                              : Advanced Audio Codec Low Complexity
Codec ID                                 : A_AAC-2
Duration                                 : 2 h 50 min
Bit rate                                 : 149 kb/s
Channel(s)                               : 2 channels
Channel layout                           : L R
Sampling rate                            : 48.0 kHz
Frame rate                               : 46.875 FPS (1024 SPF)
Compression mode                         : Lossy
Delay relative to video                  : 9 ms
Stream size                              : 182 MiB (1%)
Title                                    : Commentary: John Mathieson & Pietro Scalia & Ridley Scott
Language                                 : English
Default                                  : No
Forced                                   : No

Audio #3
ID                                       : 4
Format                                   : AAC LC
Format/Info                              : Advanced Audio Codec Low Complexity
Codec ID                                 : A_AAC-2
Duration                                 : 2 h 50 min
Bit rate                                 : 153 kb/s
Channel(s)                               : 2 channels
Channel layout                           : L R
Sampling rate                            : 48.0 kHz
Frame rate                               : 46.875 FPS (1024 SPF)
Compression mode                         : Lossy
Delay relative to video                  : 9 ms
Stream size                              : 187 MiB (1%)
Title                                    : Commentary: Russell Crowe & Ridley Scott
Language                                 : English
Default                                  : No
Forced                                   : No

Text #1
ID                                       : 5
Format                                   : UTF-8
Codec ID                                 : S_TEXT/UTF8
Codec ID/Info                            : UTF-8 Plain Text
Duration                                 : 2 h 40 min
Bit rate                                 : 34 b/s
Count of elements                        : 1365
Stream size                              : 40.9 KiB (0%)
Language                                 : English
Default                                  : No
Forced                                   : No

Text #2
ID                                       : 6
Format                                   : UTF-8
Codec ID                                 : S_TEXT/UTF8
Codec ID/Info                            : UTF-8 Plain Text
Duration                                 : 2 h 49 min
Bit rate                                 : 33 b/s
Count of elements                        : 1338
Stream size                              : 41.7 KiB (0%)
Language                                 : Czech
Default                                  : No
Forced                                   : No

Menu
00:00:00.000                             : en:Far from Home (Main Title)
00:07:13.308                             : en:Hell Unleashed
00:12:50.103                             : en:You Have Missed the War
00:18:44.790                             : en:A Pleasant Fiction
00:23:29.325                             : en:One More Duty
00:32:58.393                             : en:You Will Not Be Emperor
00:37:34.878                             : en:Hail Caesar
00:40:50.740                             : en:A Soldier's Death
00:47:32.725                             : en:Mark of the Legion
00:51:35.843                             : en:Gladiators, I Salute You
00:55:44.383                             : en:Battle in Chains
01:02:21.279                             : en:The Greatness of Rome
01:09:56.984                             : en:Win the Crowd
01:19:08.285                             : en:I Shall Cheer for You
01:29:21.648                             : en:The Battle of Carthage
01:37:11.784                             : en:My Name Is Gladiator
01:41:35.798                             : en:Terribly Vexed
01:51:58.837                             : en:A Man for the People
01:56:36.281                             : en:Maximus the Merciful
02:00:43.486                             : en:You Simply Won't Die
02:04:42.225                             : en:The Last Wish of a Dying Man
02:12:19.014                             : en:I'm an Entertainer
02:13:32.671                             : en:Busy Little Bee
02:24:15.438                             : en:Shadows and Dust
02:28:48.669                             : en:Am I Not Merciful?
02:34:20.751                             : en:Death Smiles at Us All
02:38:43.555                             : en:Home Again
02:42:57.726                             : en:Now We Are Free (End Credits)
